<?xml version="1.0" encoding="UTF-8"?>
<svg xmlns="http://www.w3.org/2000/svg" viewBox="0 0 200 200" width="200" height="200" role="img" aria-label="Mindes mono">
  <path d="M 47 0 H 153 C 176.5 0 200 23.5 200 47 V 153 C 200 176.5 176.5 200 153 200 H 47 C 23.5 200 0 176.5 0 153 V 47 C 0 23.5 23.5 0 47 0 Z" fill="#1a1a1f"></path>

  <g fill="#ffffff">
    <rect x="29" y="40" width="22" height="120" rx="11"></rect>
    <rect x="67" y="84" width="22" height="76" rx="11"></rect>
    <rect x="105" y="84" width="22" height="76" rx="11"></rect>
    <rect x="143" y="40" width="22" height="120" rx="11"></rect>
    <circle cx="100" cy="50" r="11"></circle>
  </g>
  <g stroke="#ffffff" stroke-width="6" stroke-linecap="round" fill="none" opacity="0.55">
    <line x1="100" y1="50" x2="78" y2="84"></line>
    <line x1="100" y1="50" x2="116" y2="84"></line>
  </g>

</svg>